<svg width="24" height="24" fill="none" xmlns="http://www.w3.org/2000/svg"><path fill-rule="evenodd" clip-rule="evenodd" d="M12 15.5a1 1 0 0 1-.7-.3l-4-4a1 1 0 1 1 1.4-1.4L12 13l3.3-3.2a1 1 0 0 1 1.4 1.5l-4 3.8a1 1 0 0 1-.7.3Z" fill="#000"/><mask id="a" style="mask-type:alpha" maskUnits="userSpaceOnUse" x="6" y="9" width="11" height="7"><path fill-rule="evenodd" clip-rule="evenodd" d="M12 15.5a1 1 0 0 1-.7-.3l-4-4a1 1 0 1 1 1.4-1.4L12 13l3.3-3.2a1 1 0 0 1 1.4 1.5l-4 3.8a1 1 0 0 1-.7.3Z" fill="#fff"/></mask><g mask="url(#a)"><path fill="#000" d="M0 0h24v24H0z"/></g></svg>