<svg width="24" height="24" fill="none" xmlns="http://www.w3.org/2000/svg"><path fill-rule="evenodd" clip-rule="evenodd" d="M5 11a6 6 0 1 1 12 0 6 6 0 0 1-12 0Zm15.7 8.3-3.4-3.4a8 8 0 1 0-1.4 1.4l3.4 3.4a1 1 0 0 0 1.4 0c.4-.4.4-1 0-1.4Z" fill="#000"/><mask id="a" style="mask-type:alpha" maskUnits="userSpaceOnUse" x="3" y="3" width="19" height="18"><path fill-rule="evenodd" clip-rule="evenodd" d="M5 11a6 6 0 1 1 12 0 6 6 0 0 1-12 0Zm15.7 8.3-3.4-3.4a8 8 0 1 0-1.4 1.4l3.4 3.4a1 1 0 0 0 1.4 0c.4-.4.4-1 0-1.4Z" fill="#fff"/></mask><g mask="url(#a)"><path fill="#000" d="M0 0h24v24H0z"/></g></svg>